SplineFontDB: 3.2
FontName: AnitaSabljak
FullName: AnitaSabljak
FamilyName: AnitaSabljak
Weight: Regular
Copyright: Copyright (c) 2024, Korisnik
UComments: "2024-3-18: Created with FontForge (http://fontforge.org)"
Version: 001.000
ItalicAngle: 0
UnderlinePosition: -100
UnderlineWidth: 50
Ascent: 800
Descent: 200
InvalidEm: 0
LayerCount: 2
Layer: 0 0 "Stra+AX4A-nji" 1
Layer: 1 0 "Prednji" 0
XUID: [1021 502 1811514185 12415]
OS2Version: 0
OS2_WeightWidthSlopeOnly: 0
OS2_UseTypoMetrics: 1
CreationTime: 1710761966
ModificationTime: 1710856760
OS2TypoAscent: 0
OS2TypoAOffset: 1
OS2TypoDescent: 0
OS2TypoDOffset: 1
OS2TypoLinegap: 0
OS2WinAscent: 0
OS2WinAOffset: 1
OS2WinDescent: 0
OS2WinDOffset: 1
HheadAscent: 0
HheadAOffset: 1
HheadDescent: 0
HheadDOffset: 1
OS2Vendor: 'PfEd'
MarkAttachClasses: 1
DEI: 91125
Encoding: iso8859-2
UnicodeInterp: none
NameList: AGL For New Fonts
DisplaySize: -48
AntiAlias: 1
FitToEm: 0
WinInfo: 27 27 9
BeginPrivate: 0
EndPrivate
Grid
-1000 897 m 0
 2000 897 l 1024
EndSplineSet
BeginChars: 256 21

StartChar: A
Encoding: 65 65 0
Width: 619
Flags: HW
LayerCount: 2
Fore
SplineSet
245 381 m 1
 269 519 l 1
 320.964280651 562.6906756 326.870254476 525.773439025 350 519 c 1
 383 387 l 1
 245 381 l 1
83 0 m 1
 83 0 224 -6 224 0 c 0
 224 6 266 303 266 303 c 1
 374 306 l 1
 374 306 431 -3 431 0 c 0
 431 3 548 -6 548 0 c 0
 548 6 389 675 389 675 c 5
 351.299622357 697.167750698 319.924602664 729.878579566 236 675 c 5
 83 0 l 1
EndSplineSet
EndChar

StartChar: n
Encoding: 110 110 1
Width: 537
Flags: HW
LayerCount: 2
Fore
SplineSet
71 0 m 1
 71 0 157.408936907 2.94119778665 158 0 c 0
 159.650524665 -8.21320016247 123.780959963 165.477617037 149 183 c 1
 256.80946584 341.131055233 349.486191851 213.227975144 350 210 c 1
 378.665576471 112.952415244 360.333388414 69.6189676006 365 0 c 1
 365 0 446.133789062 3.884765625 449 3 c 0
 453.575195312 1.5888671875 463.598632812 271.564453125 431 303 c 1
 380 345 354.284628377 375.104722141 284 366 c 1
 230 366 168.413729833 357.171196661 140 294 c 1
 137 366 l 1
 111.999999998 379.488632902 87.0000000026 376.422740028 62 366 c 1
 47 255 49.5439453125 128.32421875 71 0 c 1
EndSplineSet
EndChar

StartChar: i
Encoding: 105 105 2
Width: 361
Flags: HW
LayerCount: 2
Fore
SplineSet
125 441 m 5
 158.805917061 426.173662593 188.228299133 399.439373765 245 447 c 5
 250.279145659 486.000000002 257.924282889 524.999999999 239 564 c 1
 208.222628749 587.673988912 175.713104569 600.235773092 137 573 c 1
 106.092577574 532.40232475 92.9248433405 489.561544263 125 441 c 5
119 0 m 1
 242 0 l 1
 246.009765625 89.9453125 253.263671875 158.803710938 242 348 c 1
 107 348 l 1
 97.576171875 162.484375 105.38671875 66.21875 119 0 c 1
EndSplineSet
EndChar

StartChar: t
Encoding: 116 116 3
Width: 596
Flags: HW
LayerCount: 2
Fore
SplineSet
245 0 m 1
 245 0 380 3 380 0 c 0
 380 -1.64506930817 350 381 350 381 c 1
 539 372 l 0
 545.851347378 404.131055261 553.447265625 445.993164062 536 486 c 0
 359 486 l 0
 372.001953125 546 389.002258602 596.999999997 374 657 c 1
 322.233244585 684.397568975 276.845528527 676.468984882 233 660 c 1
 213.539518226 598.999999996 246.935546875 550 257 489 c 0
 62 492 l 0
 41.4150390625 455.396484375 42.331879987 409.619773642 74 381 c 0
 263 384 l 0
 245 0 l 1
EndSplineSet
EndChar

StartChar: a
Encoding: 97 97 4
Width: 648
Flags: HW
LayerCount: 2
Fore
SplineSet
149 198 m 1
 167 246 149.314662287 289.349255218 236 282 c 1
 266.90750851 270.658280226 302.273895215 282.204174063 326 234 c 1
 352.296277473 215.908280818 316.248059365 113.52978891 314 108 c 0
 308.90069859 95.4567100714 176.466767071 89.2983505383 182 123 c 1
 197.232771559 125.961808579 165.892578125 85.4658203125 149 198 c 1
149 24 m 1
 180.246014638 -24.3828396087 413.13671875 4.0224609375 410 15 c 0
 410 15 476.435546875 118.875 464 129 c 1
 455.706054688 120.405273438 450.873737662 -10.3852691293 458 0 c 0
 459.697384485 2.47363819298 572.030117509 0.424025928627 575 0 c 0
 589.515935229 -2.07251732466 576.970445757 363.214769593 569 366 c 1
 530 391.671169545 491 385.767543087 452 375 c 1
 433.974510413 359.803647341 446.186273208 302.742094119 443 267 c 1
 402.15884113 294.06043603 395.078619168 333.966266663 320 348 c 1
 273.507785042 367.521662038 223.380859375 382.140625 161 354 c 1
 74.4301050626 314.754111568 40.3831345692 241.163935563 44 144 c 1
 64.9139333188 95.9500879791 86.9611184937 48.5478072626 149 24 c 1
EndSplineSet
EndChar

StartChar: S
Encoding: 83 83 5
Width: 703
Flags: HW
LayerCount: 2
Fore
SplineSet
111 174 m 21
 142.877929688 77.50390625 216 57 267 30 c 5
 356.212890625 5.1484375 441 0 519 30 c 5
 624.11328125 96.0322265625 609 180 609 249 c 5
 537 378 359.887695312 412.42578125 287 549 c 5
 305.987304688 639.909179688 382.663085938 645.103515625 473 630 c 5
 528.740234375 585.743164062 544.250976562 553.064453125 575 516 c 5
 650 594 l 29
 506 726 l 5
 410 738 320 780 215 657 c 5
 215 657 155 600 161 522 c 5
 233 396 303.038085938 320.307617188 468 219 c 5
 483.563476562 183.930664062 459.015625 170.31640625 447 150 c 5
 396 138 351 141 288 165 c 5
 249.834960938 194.978515625 211.771484375 231.161132812 174 285 c 13
 111 174 l 21
EndSplineSet
EndChar

StartChar: b
Encoding: 98 98 6
Width: 640
Flags: HW
LayerCount: 2
Fore
SplineSet
347 186 m 1
 362.223684365 223.36360865 359.913240187 272.307696889 467 249 c 1
 495.956605343 201.571550813 489.86646506 173.25545045 491 141 c 1
 464.718126608 107.576931522 428.252981394 98.0091781956 386 102 c 1
 372.025810006 129.080483439 338.986647052 138.165957207 347 186 c 1
149 0 m 1
 149 0 263 -6 263 0 c 0
 263 6 260 198 260 198 c 1
 241.969021866 177.863305923 289.072996998 48.2484486874 296 42 c 0
 361.833198379 -17.3843198701 434.449453724 7.59719954802 497 42 c 0
 557 75 586.500362938 94.1510710201 581 264 c 1
 520.37890625 307.700195312 550.74609375 325.59765625 428 351 c 1
 362.131835938 350.908203125 313.64453125 346.762695312 263 288 c 1
 276.245329529 430.171367203 273.700923962 582.867332742 263 741 c 1
 232.727442014 751.938555269 205.410467789 767.243440637 152 744 c 1
 116.940402218 475.212027714 132.823941798 237.516745788 149 0 c 1
EndSplineSet
EndChar

StartChar: l
Encoding: 108 108 7
Width: 302
Flags: HW
LayerCount: 2
Fore
SplineSet
80 0 m 1
 80 0 212.007868268 0.217135206915 215 0 c 0
 226.831022888 -0.858562333749 203.678523473 601.865034361 191 606 c 1
 101 612 l 1
 73.8905498464 408.000000011 70.360584438 203.999999988 80 0 c 1
EndSplineSet
EndChar

StartChar: j
Encoding: 106 106 8
Width: 700
Flags: HW
LayerCount: 2
Fore
SplineSet
431 594 m 1
 461.999999998 572.343123937 493.000000002 578.068414459 524 585 c 1
 542.761114893 614.082711825 563.110257436 642.365434133 551 687 c 1
 518.997790802 702.999946846 482.997790794 706.999946819 443 699 c 1
 415.288766545 664 425.790254338 629 431 594 c 1
149 108 m 1
 161.547678581 21.2819708344 178.152587598 -64.0259617632 236 -135 c 1
 317 -159 381.159208477 -174.336248233 482 -123 c 1
 518 -60 540.803588683 -27.1579623805 539 90 c 1
 539.147460938 226.07421875 525.158203125 355.079101562 539 498 c 1
 497.916992188 492.250976562 458.687285685 480.940489627 410 498 c 1
 429.615280472 341.651179777 412.226428236 229.008142555 407 102 c 9
 407 102 387.438022505 -3.89722482532 392 0 c 0
 396.594895039 3.92534576014 318.194368541 -3.01855285642 305 0 c 0
 278.94277468 5.96126382822 232.64726365 108.23904542 245 120 c 1
 202.236407621 125.420297016 176.267297109 116.142061995 149 108 c 1
EndSplineSet
EndChar

StartChar: k
Encoding: 107 107 9
Width: 512
Flags: HW
LayerCount: 2
Fore
SplineSet
97 0 m 1
 97 0 225.825739945 -4.93134398957 225 0 c 0
 213.111245898 71 195.793809803 142 225 213 c 9
 225 213 349 -5 349 0 c 0
 349 5 457.613325289 42.9280118708 453 41 c 0
 437.875059243 34.6789488069 255.655457102 299.011580493 269 309 c 1
 302.166185526 368.055775047 340.867166197 419.237218211 389 457 c 9
 369 585 l 25
 237 401 l 17
 220.39620562 493.653512854 177.789871488 552.015471308 213 713 c 1
 81 709 l 17
 103.757924744 468.202048736 115.628663456 230.193667962 97 0 c 1
EndSplineSet
EndChar

StartChar: Ccaron
Encoding: 200 268 10
Width: 541
Flags: HW
LayerCount: 2
Fore
SplineSet
425 670 m 5
 402.258789062 637.452148438 375.567382812 607.569335938 341 583 c 5
 270.140625 595.76171875 237.509765625 634.006835938 197 667 c 5
 255.03125 708.102539062 236.56640625 717.024414062 242 736 c 13
 326 670 l 21
 342.326171875 687.51953125 357.12109375 710.787109375 365 760 c 5
 379.799804688 720.641601562 396.994140625 685.592773438 425 670 c 5
161 406 m 5
 83.841796875 342.598632812 138.962890625 203.329101562 136 147 c 5
 101.979492188 138.405273438 204.3046875 45.7744140625 229 27 c 4
 281.52734375 -12.9345703125 441.7265625 -3.6162109375 442 0 c 4
 443.286132812 16.98046875 499.326171875 57.919921875 481 75 c 5
 461.043945312 105.282226562 449.731445312 142.622070312 376 129 c 13
 310 93 l 21
 269.727539062 139 259.662109375 185 262 231 c 5
 252.307617188 292.7109375 285.596679688 397.348632812 326 412 c 13
 386 376 l 29
 449 412 l 21
 412.104492188 444.354492188 385.930664062 499.567382812 335 502 c 5
 274.362304688 492.840820312 213.818359375 482.87109375 161 406 c 5
EndSplineSet
EndChar

StartChar: ccaron
Encoding: 232 269 11
Width: 541
Flags: HW
LayerCount: 2
Fore
SplineSet
437 609 m 5
 414.258789062 576.452148438 387.567382812 546.569335938 353 522 c 5
 282.140625 534.76171875 249.509765625 573.006835938 209 606 c 5
 267.03125 647.102539062 248.56640625 656.024414062 254 675 c 13
 338 609 l 21
 354.326171875 626.51953125 369.12109375 649.787109375 377 699 c 5
 391.799804688 659.641601562 408.994140625 624.592773438 437 609 c 5
173 345 m 5
 95.841796875 281.598632812 138.962890625 203.329101562 136 147 c 1
 101.979492188 138.405273438 204.3046875 45.7744140625 229 27 c 0
 281.52734375 -12.9345703125 441.7265625 -3.6162109375 442 0 c 0
 443.286132812 16.98046875 499.326171875 57.919921875 481 75 c 1
 461.043945312 105.282226562 449.731445312 142.622070312 376 129 c 9
 310 93 l 17
 269.727539062 139 259.662109375 185 262 231 c 1
 252.307617188 292.7109375 297.596679688 336.348632812 338 351 c 13
 398 315 l 29
 461 351 l 21
 424.104492188 383.354492188 397.930664062 438.567382812 347 441 c 5
 286.362304688 431.840820312 225.818359375 421.87109375 173 345 c 5
EndSplineSet
EndChar

StartChar: Cacute
Encoding: 198 262 12
Width: 541
Flags: HW
LayerCount: 2
Fore
SplineSet
302 755 m 17
 276.060920181 700.402912304 246.57128255 676.122125923 218 644 c 5
 242 640.180932018 266 652.795908606 290 620 c 5
 310.002262344 653.99999997 342.002262337 683.999999973 386 710 c 1
 302 755 l 17
83 182 m 1
 67.7484194056 156.605548242 109.247397264 86.5292411281 131 32 c 1
 203.000000004 -1.40755182053 274.999999997 -16.9655948264 347 26 c 9
 407 128 l 17
 377.143969425 147.874491548 346.327898344 167.921870663 332 185 c 1
 332.989550761 153.132303569 300.844984886 141.972081617 278 125 c 1
 246.488479821 160.192699017 203.202178954 182.223905771 191 239 c 1
 148.045763805 283.000000025 129.454939947 326.999999978 173 371 c 9
 173 371 227 416 245 416 c 8
 263 416 302 323 302 323 c 25
 350 341 l 1
 355.580220014 410.252293576 368.644205658 480.463371356 314 542 c 1
 227.453944621 566.815310235 152.60487305 558.809624642 98 494 c 1
 60.1303611024 396.988735951 45.8830927859 294.954888264 83 182 c 1
EndSplineSet
EndChar

StartChar: cacute
Encoding: 230 263 13
Width: 541
Flags: HW
LayerCount: 2
Fore
SplineSet
400 498 m 5
 382.781680288 462.81601888 352.523247757 438.852309034 314 422 c 13
 398 398 l 1
 397.827682989 433.688081826 427.04991741 446.978384659 454 462 c 9
 400 498 l 5
214 380 m 1
 92.625 375.436523438 -16.6328125 53.1728515625 138 7 c 0
 192.071289062 -9.1455078125 414.864257812 14.0439453125 356 32 c 1
 389.575842666 117.447291728 389.747741109 88.8630503802 408 122 c 1
 330.125976562 134.94921875 275.02734375 54.5556640625 178 146 c 1
 175.813476562 286.46484375 198 260 228 292 c 1
 280.397460938 330.749023438 317.145507812 289.833007812 360 280 c 1
 370.523053066 330.87176843 407.38546312 332.608276605 438 346 c 1
 368.515625 382.540039062 299.104492188 419.43359375 214 380 c 1
EndSplineSet
EndChar

StartChar: Scaron
Encoding: 169 352 14
Width: 703
Flags: HW
LayerCount: 2
Fore
SplineSet
194 732 m 5
 263 687 l 5
 374 684 l 5
 419 741 l 5
 356 783 l 29
 326 720 l 5
 296 714 l 5
 266 774 l 5
 194 732 l 5
44 171 m 21
 75.8779296875 74.50390625 149 54 200 27 c 5
 289.212890625 2.1484375 374 -3 452 27 c 5
 557.11328125 93.0322265625 549 198 549 267 c 5
 477 396 284.887695312 310.42578125 212 447 c 5
 230.987304688 537.909179688 307.663085938 543.103515625 398 528 c 5
 453.740234375 483.743164062 469.250976562 451.064453125 500 414 c 5
 575 492 l 29
 431 624 l 5
 335 636 245 678 140 555 c 5
 140 555 80 498 86 420 c 5
 158 294 236.038085938 317.307617188 401 216 c 5
 416.563476562 180.930664062 392.015625 167.31640625 380 147 c 5
 329 135 284 138 221 162 c 5
 182.834960938 191.978515625 144.771484375 228.161132812 107 282 c 13
 44 171 l 21
EndSplineSet
EndChar

StartChar: scaron
Encoding: 185 353 15
Width: 724
Flags: HW
LayerCount: 2
Fore
SplineSet
179 630 m 1
 248 585 l 1
 359 582 l 1
 404 639 l 1
 341 681 l 25
 311 618 l 1
 281 612 l 1
 251 672 l 1
 179 630 l 1
22 168 m 1
 20.84765625 169.354492188 130.627929688 40.25390625 178 24 c 1
 267.212890625 -0.8515625 352 -6 430 24 c 1
 535.11328125 90.0322265625 512 153 512 222 c 1
 440 351 269.887695312 208.42578125 197 345 c 1
 215.987304688 435.909179688 292.663085938 441.103515625 383 426 c 1
 438.740234375 381.743164062 427.250976562 397.064453125 458 360 c 1
 506 420 l 1
 416 522 l 1
 320 534 230 576 125 453 c 1
 125 453 65 396 71 318 c 1
 143 192 197.038085938 290.307617188 362 189 c 5
 377.563476562 153.930664062 370.015625 164.31640625 358 144 c 1
 307 132 262 135 199 159 c 1
 160.834960938 188.978515625 126.771484375 162.161132812 89 216 c 1
 22 168 l 1
EndSplineSet
EndChar

StartChar: Zcaron
Encoding: 174 381 16
Width: 1000
Flags: H
LayerCount: 2
Fore
SplineSet
234 746 m 29
 336 668 l 29
 430 668 l 29
 506 754 l 29
 412 780 l 29
 396 730 l 29
 348 728 l 29
 308 774 l 29
 234 746 l 29
200 597 m 5
 310.461914062 619.544921875 426.571289062 619.010742188 545 609 c 5
 522.848632812 566.634765625 425 378 425 378 c 5
 518 378 l 5
 515 306 l 5
 380 312 l 5
 380 312 302.423616291 130.618153078 278 93 c 5
 367.999999995 103.486787701 458.000000005 110.525358794 548 102 c 5
 554 0 l 5
 554 0 161 -6 161 0 c 4
 161 6 152 84 152 84 c 5
 190.063179826 150.910998889 272 327 272 327 c 5
 149 330 l 5
 161 396 l 5
 296 399 l 5
 296 399 378.907226562 500.891601562 392 522 c 5
 328 511.2734375 264 511.04296875 200 510 c 5
 200 597 l 5
EndSplineSet
EndChar

StartChar: zcaron
Encoding: 190 382 17
Width: 1000
Flags: HW
LayerCount: 2
Fore
SplineSet
195 566 m 25
 297 488 l 1
 364 491 l 25
 440 577 l 25
 346 603 l 25
 330 553 l 25
 309 548 l 1
 269 594 l 25
 195 566 l 25
161 417 m 1
 271.461914062 439.544921875 360.571289062 442.010742188 479 432 c 1
 456.848632812 389.634765625 371 246 371 246 c 1
 431 255 l 1
 428 174 l 1
 326 180 l 1
 326 180 302.423616291 130.618153078 278 93 c 1
 367.999999995 103.486787701 374 101.525390625 464 93 c 1
 464 0 l 5
 464 0 161 -6 161 0 c 0
 161 6 152 84 152 84 c 1
 190.063179826 150.910998889 245 192 245 192 c 1
 170 198 l 1
 170 267 l 1
 269 264 l 1
 269 264 312.907226562 323.891601562 326 345 c 1
 262 334.2734375 225 331.04296875 161 330 c 1
 161 417 l 1
EndSplineSet
EndChar

StartChar: Dcroat
Encoding: 208 272 18
Width: 1000
Flags: H
LayerCount: 2
Fore
SplineSet
362 204 m 5
 359 291 l 4
 452 294 l 4
 446 384 l 4
 353 381 l 4
 353 462 l 5
 403 485.564453125 465 469.806640625 515 390 c 5
 552.777589556 223.219295761 480.815815025 220.832037081 362 204 c 5
230 0 m 5
 332 0 482.987304688 -25.541015625 590 84 c 5
 704 207 706.23046875 401.763671875 623 567 c 5
 501.654296875 636.760742188 396.268341761 651.882654302 230 639 c 5
 224.326086957 465 l 4
 230 372 l 4
 137 366 l 5
 140 282 l 4
 221 285 l 4
 230 0 l 5
EndSplineSet
EndChar

StartChar: dcroat
Encoding: 240 273 19
Width: 1000
Flags: H
LayerCount: 2
Fore
SplineSet
356 201 m 1
 388.000000002 257.389001228 429 247.638671875 461 243 c 1
 476.359782331 212.000000003 490.096879259 180.999999998 467 150 c 1
 451.684570312 116.745117188 407.338308691 116.498604382 377 108 c 1
 364.110565597 133.551408918 351.936464648 159.764606254 356 201 c 1
263 48 m 1
 271.99629254 -22.4138249577 532.537329179 -7.90471207174 536 42 c 0
 536.79169585 53.4100806761 588.845977011 139.113327722 569 141 c 1
 569 141 581 -9 581 0 c 8
 581 9 677 -9 677 0 c 0
 677 5.25958133738 665 471 665 471 c 1
 758 474 l 0
 758 543 l 0
 662 549 l 0
 665 696 l 1
 569 690 l 1
 569 537 l 0
 458 534 l 0
 461 471 l 0
 563 471 l 0
 569 300 l 1
 522.606311842 352.441805597 472.41827462 400.153463935 371 384 c 1
 291.319033967 356.029135768 253.337718733 305.53847338 221 252 c 1
 193.780519208 147.585244914 228.369140625 121.020507812 263 48 c 1
EndSplineSet
EndChar

